<svg xmlns="http://www.w3.org/2000/svg" viewBox="0 0 900 1200" role="img" aria-labelledby="title desc">
  <title id="title">Covenant in Bronze</title>
  <desc id="desc">A bronze ceremonial abstract form on a dark field.</desc>
  <defs>
    <linearGradient id="bg" x1="0" x2="1" y1="0" y2="1"><stop stop-color="#060504"/><stop offset="1" stop-color="#18120b"/></linearGradient>
    <linearGradient id="metal" x1=".2" x2=".9" y1="0" y2="1"><stop stop-color="#e5c27b"/><stop offset=".38" stop-color="#9b6829"/><stop offset="1" stop-color="#4b3014"/></linearGradient>
    <filter id="grain"><feTurbulence type="fractalNoise" baseFrequency=".75" numOctaves="4" seed="7"/><feColorMatrix type="saturate" values="0"/><feComponentTransfer><feFuncA type="table" tableValues="0 .12"/></feComponentTransfer></filter>
  </defs>
  <rect width="900" height="1200" fill="url(#bg)"/>
  <path d="M450 184c104 0 188 84 188 188v456c0 104-84 188-188 188s-188-84-188-188V372c0-104 84-188 188-188Z" fill="none" stroke="url(#metal)" stroke-width="28" opacity=".72"/>
  <path d="M450 282v640M318 480h264M318 716h264" stroke="#f4efe5" stroke-width="3" opacity=".36"/>
  <path d="M180 602c86-74 176-110 270-110s184 36 270 110" fill="none" stroke="#a87936" stroke-width="6" opacity=".44"/>
  <path d="M180 646c86 74 176 110 270 110s184-36 270-110" fill="none" stroke="#a87936" stroke-width="6" opacity=".44"/>
  <rect width="900" height="1200" filter="url(#grain)"/>
</svg>
